<svg width="168" height="52" viewBox="0 0 168 52" fill="none" xmlns="http://www.w3.org/2000/svg">
<path d="M88.1399 0.0445556C88.273 0.0445556 88.4062 0.0445556 88.5428 0.0428419C88.9895 0.0428419 89.4379 0.0428419 89.8863 0.0428419C90.2083 0.0428419 90.532 0.0428419 90.8557 0.0411282C91.7458 0.0394145 92.6359 0.0394145 93.526 0.0394145C94.4852 0.0394145 95.4444 0.0377009 96.4036 0.0377009C98.5024 0.0342735 100.601 0.0342735 102.7 0.0325598C104.01 0.0325598 105.318 0.0308462 106.628 0.0308462C110.252 0.0291325 113.877 0.0274188 117.501 0.0257051C117.736 0.0257051 117.97 0.0257051 118.204 0.0257051C118.439 0.0257051 118.673 0.0257051 118.909 0.0257051C119.379 0.0257051 119.851 0.0257051 120.322 0.0257051C120.44 0.0257051 120.556 0.0257051 120.676 0.0257051C124.467 0.0257051 128.257 0.0222778 132.048 0.0188504C136.055 0.0137094 140.06 0.0119957 144.068 0.0119957C146.252 0.0119957 148.437 0.010282 150.62 0.0068547C152.481 0.00514102 154.341 0.00342735 156.2 0.00514102C157.149 0.0068547 158.098 0.00514102 159.048 0.00342735C159.916 0.00171367 160.784 0.00171367 161.654 0.00342735C161.967 0.00342735 162.283 0.00342735 162.598 0.00171367C163.024 -1.59598e-09 163.451 0.00171367 163.877 0.00342735C164.063 0.00171367 164.063 0.00171368 164.25 0C165.035 0.0068547 165.566 0.166227 166.236 0.580936C166.551 0.913389 166.551 0.913389 166.794 1.26641C166.878 1.38294 166.961 1.49947 167.045 1.61942C167.61 2.54652 167.535 3.64841 167.416 4.69376C167.077 5.65341 166.564 6.49312 166.032 7.35338C165.472 8.25649 164.948 9.18187 164.418 10.1038C163.412 11.8569 162.399 13.6032 161.369 15.3408C160.561 16.7032 159.766 18.0724 158.985 19.4519C158.36 20.5538 157.717 21.6454 157.072 22.7353C156.408 23.8595 155.747 24.9854 155.089 26.1147C154.995 26.2758 154.901 26.4369 154.804 26.6014C154.717 26.7522 154.629 26.903 154.54 27.0572C154.423 27.256 154.423 27.256 154.305 27.4599C154.112 27.8061 153.933 28.1557 153.761 28.5138C153.65 28.5138 153.538 28.5138 153.424 28.5138C153.382 28.6612 153.338 28.8086 153.292 28.9611C153.08 29.5643 152.813 30.0647 152.493 30.6148C152.434 30.7159 152.377 30.8153 152.316 30.9181C152.127 31.242 151.939 31.5659 151.748 31.8881C151.618 32.1126 151.488 32.3371 151.357 32.5598C151.161 32.8974 150.966 33.2333 150.77 33.5692C150.17 34.5957 149.582 35.629 148.999 36.6658C148.586 37.3958 148.157 38.1156 147.722 38.8319C147.035 39.9646 146.367 41.1094 145.701 42.2558C145.583 42.458 145.463 42.6619 145.345 42.8642C144.828 43.7501 144.312 44.6344 143.811 45.5289C142.341 48.1251 140.401 50.5157 137.485 51.4428C135.812 51.8832 134.209 51.8935 132.495 51.8901C132.171 51.8918 131.847 51.8918 131.524 51.8935C130.637 51.8969 129.752 51.8969 128.867 51.8969C127.909 51.8969 126.953 51.9004 125.996 51.9038C123.906 51.9089 121.817 51.9107 119.728 51.9124C118.423 51.9124 117.117 51.9141 115.812 51.9158C112.198 51.9209 108.583 51.9244 104.969 51.9244C104.795 51.9244 104.795 51.9244 104.618 51.9244C104.033 51.9244 103.449 51.9244 102.864 51.9244C102.629 51.9244 102.393 51.9244 102.159 51.9244C102.043 51.9244 101.926 51.9244 101.807 51.9244C98.1484 51.9244 94.4902 51.9295 90.8321 51.9381C86.7187 51.9484 82.6054 51.9535 78.4921 51.9535C76.3157 51.9535 74.1394 51.9552 71.963 51.9621C70.1103 51.9689 68.2577 51.9706 66.405 51.9655C65.4609 51.9638 64.5152 51.9638 63.5712 51.9706C62.7063 51.9741 61.8399 51.9741 60.975 51.9689C60.6632 51.9689 60.3496 51.9689 60.0377 51.9723C57.2174 52.0015 57.2174 52.0015 55.9396 50.9287C55.2417 50.1901 54.9905 49.4053 54.9736 48.3925C55.3597 46.8862 56.1301 45.5958 56.9224 44.2797C57.0438 44.0757 57.1652 43.8718 57.2865 43.6662C57.4686 43.3594 57.6507 43.0527 57.8327 42.7459C58.3486 41.8788 58.8509 41.0031 59.3466 40.124C60.208 38.604 61.0947 37.0994 61.9882 35.5982C63.3183 33.3584 64.6265 31.1101 65.9077 28.8412C66.5196 27.7581 67.1433 26.6905 67.7941 25.6332C68.2223 24.922 68.6319 24.2022 69.0399 23.4808C69.5911 22.5074 70.1457 21.5392 70.7155 20.5778C72.1265 18.1992 73.5173 15.8069 74.8744 13.3958C75.2958 12.6486 75.7341 11.9135 76.1809 11.1817C76.6664 10.3814 77.1384 9.57602 77.6003 8.76202C77.6593 8.65749 77.72 8.55295 77.7807 8.44499C78.0218 8.02 78.2628 7.5933 78.5039 7.16659C80.4358 3.72553 82.6695 1.40521 86.4456 0.143949C87.0087 0.0325598 87.5684 0.0428419 88.1399 0.0445556Z" fill="#21B6A8"/>
<path d="M128.178 15.4781C131.105 17.999 133.148 21.0579 133.869 24.9153C133.9 25.0679 133.932 25.2221 133.964 25.3797C134.5 29.4806 133.809 33.7134 131.317 37.0516C130.941 37.528 130.555 37.9924 130.161 38.4534C130.07 38.5613 129.979 38.6676 129.884 38.779C127.307 41.598 123.535 43.2174 119.798 43.4607C114.729 43.6235 110.417 42.9021 106.517 39.3959C106.249 39.1406 105.981 38.8835 105.717 38.6247C105.599 38.5185 105.481 38.4105 105.359 38.3009C103.041 36.1194 101.654 32.6097 101.477 29.4377C101.325 25.0164 102.268 21.0973 105.211 17.7179C105.353 17.5534 105.494 17.3889 105.641 17.2192C111.093 11.1614 121.85 10.3148 128.178 15.4781Z" fill="#FDFDFD"/>
<path d="M54.0995 15.876C57.3766 18.7806 59.1973 22.4136 59.526 26.8006C59.7384 31.0077 58.6899 34.9492 55.9353 38.1229C53.8398 40.4432 51.3735 42.0198 48.3998 42.9092C48.2228 42.964 48.0475 43.0189 47.8671 43.0754C43.4014 44.2219 38.3205 43.5792 34.3555 41.2041C33.8531 40.8733 33.371 40.5289 32.8905 40.1673C32.663 39.9977 32.663 39.9977 32.432 39.8246C31.5149 39.1065 30.7462 38.344 30.0247 37.4254C29.9404 37.3243 29.8561 37.2232 29.7685 37.1187C27.1471 33.8233 26.7307 29.6882 26.9903 25.6011C27.4859 21.6596 29.6977 18.1106 32.722 15.6618C38.8329 11.0828 48.152 10.8343 54.0995 15.876Z" fill="#21B6A8"/>
<path d="M2.21276 12.5466C2.37291 12.5449 2.53306 12.5449 2.69658 12.5432C3.22929 12.5398 3.762 12.5381 4.29471 12.5363C4.47678 12.5346 4.65884 12.5346 4.84765 12.5346C5.8153 12.5312 6.78125 12.5278 7.7489 12.5261C8.74183 12.5244 9.73644 12.5192 10.7294 12.5124C11.4964 12.5072 12.2651 12.5055 13.0322 12.5055C13.398 12.5038 13.7638 12.5021 14.1296 12.4986C16.7982 12.4781 19.4533 12.5878 21.859 13.9056C21.9702 13.9638 22.0815 14.0238 22.1944 14.0838C23.8701 15.0126 25.0434 16.447 25.6655 18.2892C26.0734 20.0645 25.9875 22.0884 25.1361 23.7164C24.6776 24.3453 24.1752 24.8919 23.6189 25.43C23.5245 25.5209 23.4318 25.6134 23.3357 25.7077C22.7507 26.2458 22.1439 26.4994 21.4274 26.801C21.3718 26.9141 21.3161 27.0272 21.2588 27.1437C21.4055 27.1626 21.5538 27.1814 21.7072 27.202C23.4638 27.555 24.5916 28.6843 25.5829 30.1152C26.8961 32.1751 27.1186 34.4645 26.7174 36.8483C26.183 38.8892 24.8546 40.423 23.1132 41.5386C20.1631 43.0381 17.2517 43.1563 14.0167 43.1374C13.6306 43.1357 13.2446 43.1357 12.8602 43.1357C12.0578 43.134 11.257 43.1323 10.4546 43.1289C9.42626 43.1237 8.39624 43.122 7.36622 43.1203C6.5739 43.1203 5.77989 43.1186 4.98757 43.1169C4.60827 43.1152 4.22728 43.1152 3.84798 43.1135C3.32033 43.1135 2.79267 43.11 2.26502 43.1083C2.10656 43.1083 1.94978 43.1083 1.78626 43.1066C0.710724 43.0997 0.710724 43.0997 0.523601 42.9095C0.506743 42.5205 0.501686 42.1332 0.501686 41.7442C0.501686 41.6208 0.501686 41.4975 0.5 41.3706C0.5 40.9559 0.5 40.5395 0.501686 40.1231C0.501686 39.8266 0.5 39.5302 0.5 39.2337C0.5 38.4248 0.5 37.616 0.5 36.8071C0.5 35.9623 0.5 35.1192 0.5 34.2743C0.5 32.8554 0.5 31.4382 0.501686 30.0193C0.501686 28.3776 0.501686 26.7359 0.5 25.0924C0.5 23.6855 0.5 22.2786 0.5 20.8717C0.5 20.0303 0.5 19.1888 0.5 18.3474C0.5 17.5557 0.5 16.764 0.501686 15.974C0.501686 15.6827 0.501686 15.3913 0.5 15.1C0.5 14.7041 0.5 14.3083 0.501686 13.9124C0.501686 13.6914 0.501686 13.4686 0.501686 13.2407C0.545516 12.2227 1.4137 12.5483 2.21276 12.5466Z" fill="#21B6A8"/>
<path d="M82.9732 12.3445C83.1115 12.3445 83.248 12.3428 83.3913 12.3428C83.5396 12.3445 83.6863 12.3479 83.8397 12.3496C83.9914 12.3496 84.1448 12.3496 84.3016 12.3496C84.6219 12.3513 84.9439 12.3531 85.2659 12.3582C85.7598 12.3633 86.2538 12.3651 86.7494 12.3651C87.0613 12.3668 87.3731 12.3685 87.685 12.3702C87.8334 12.3719 87.9834 12.3719 88.1351 12.3736C89.1752 12.3856 89.1752 12.3856 89.364 12.5775C89.3826 12.8843 89.3893 13.1928 89.391 13.5012C89.3927 13.7017 89.3944 13.9039 89.3961 14.1096C89.3978 14.4437 89.3978 14.4437 89.3994 14.783C89.4011 15.0178 89.4028 15.2526 89.4045 15.4874C89.4079 16.1266 89.4129 16.7658 89.4146 17.405C89.4197 18.0716 89.4231 18.7382 89.4281 19.4065C89.4365 20.6695 89.445 21.9342 89.4517 23.1989C89.4601 24.6367 89.4686 26.0762 89.4787 27.5157C89.4972 30.4752 89.5158 33.4364 89.5326 36.3976C89.6894 36.3993 89.8445 36.4011 90.0046 36.4028C91.4713 36.4199 92.9379 36.437 94.4046 36.4559C95.1581 36.4645 95.9117 36.473 96.6652 36.4816C97.3918 36.4902 98.1184 36.4987 98.8466 36.509C99.1231 36.5124 99.4012 36.5159 99.6794 36.5193C100.067 36.5227 100.455 36.5279 100.844 36.533C101.065 36.5364 101.286 36.5382 101.514 36.5416C102.007 36.569 102.007 36.569 102.176 36.7404C102.191 37.2099 102.196 37.6743 102.193 38.1439C102.193 38.2844 102.193 38.4249 102.191 38.5689C102.191 39.0196 102.19 39.4703 102.186 39.9209C102.186 40.226 102.184 40.5293 102.184 40.8343C102.183 41.5832 102.179 42.3321 102.176 43.081C99.5412 43.0844 96.9063 43.0878 94.2731 43.0895C93.0492 43.0895 91.8253 43.0912 90.6031 43.093C89.536 43.0947 88.4706 43.0964 87.4052 43.0964C86.8404 43.0964 86.2757 43.0964 85.7109 43.0981C85.0821 43.0998 84.4517 43.0998 83.8229 43.0998C83.634 43.0998 83.4452 43.1015 83.2514 43.1015C82.9951 43.1015 82.9951 43.1015 82.7355 43.1015C82.5113 43.1015 82.5113 43.1015 82.2837 43.1015C81.9466 43.081 81.9466 43.081 81.778 42.9096C81.7611 42.524 81.7561 42.1384 81.7544 41.7529C81.7544 41.6312 81.7544 41.5095 81.7527 41.3827C81.751 40.9697 81.751 40.5567 81.751 40.1454C81.751 39.8507 81.7493 39.5559 81.7493 39.2612C81.746 38.4575 81.746 37.6555 81.7443 36.8535C81.7443 36.3514 81.7426 35.851 81.7426 35.3506C81.7409 33.7843 81.7392 32.218 81.7375 30.6517C81.7375 28.842 81.7342 27.0324 81.7291 25.221C81.7257 23.8244 81.724 22.426 81.724 21.0294C81.724 20.1931 81.7224 19.3586 81.719 18.5223C81.7173 17.7374 81.7173 16.9508 81.7173 16.166C81.7173 15.8764 81.7173 15.5885 81.7156 15.2989C81.7139 14.9064 81.7139 14.5123 81.7156 14.1181C81.7156 13.8988 81.7156 13.6777 81.7156 13.4515C81.778 12.9203 81.778 12.9203 82.0157 12.5913C82.3562 12.3548 82.5619 12.3428 82.9732 12.3445Z" fill="#FDFDFD"/>
<path d="M48.0279 20.184C49.712 21.4349 50.9528 23.3611 51.4332 25.4295C51.4636 25.5512 51.4956 25.6729 51.526 25.798C51.8159 27.6693 51.8024 29.8337 51.0961 31.5987C51.0404 31.741 50.9865 31.8849 50.9292 32.0323C50.0071 34.135 48.2926 35.703 46.2376 36.6095C44.4726 37.2367 41.9153 37.2282 40.2126 36.4519C40.0778 36.3765 39.9412 36.3028 39.8013 36.2257C39.572 36.1006 39.572 36.1006 39.3377 35.9738C37.0669 34.6165 35.6627 32.8189 34.9344 30.2484C34.4186 27.8355 34.7136 25.181 36.0015 23.0509C38.8876 19.0169 43.6567 17.2878 48.0279 20.184Z" fill="white"/>
<path d="M122.574 20.117C124.346 21.5616 125.838 23.7825 126.115 26.1149C126.307 29.0332 126.14 31.7837 124.216 34.1177C122.563 35.8828 120.786 36.8939 118.382 36.9796C115.706 37.0173 113.65 36.1724 111.659 34.3302C109.869 32.428 109.241 29.8815 109.257 27.3144C109.44 24.9273 110.545 22.5813 112.259 20.9413C115.201 18.4684 119.316 17.9184 122.574 20.117Z" fill="#21B6A8"/>
<path d="M9.13617 30.3496C9.27947 30.3479 9.42107 30.3445 9.56774 30.3428C9.80037 30.3428 9.80037 30.3428 10.0364 30.3411C10.1965 30.3411 10.3567 30.3394 10.5202 30.3377C10.8607 30.3359 11.1996 30.3359 11.5384 30.3359C12.0526 30.3359 12.5668 30.3291 13.0809 30.3222C16.5199 30.3017 16.5199 30.3017 17.7185 31.0848C18.6997 32.1199 18.9626 32.9099 18.9441 34.3322C18.875 35.1171 18.7165 35.441 18.2243 36.0545C17.2853 36.8188 16.4289 37.1032 15.2269 37.105C14.996 37.105 14.996 37.105 14.7583 37.1067C14.5948 37.1067 14.4296 37.1067 14.2593 37.105C14.089 37.105 13.9188 37.1067 13.7434 37.1067C13.3844 37.1067 13.0236 37.1067 12.6645 37.105C12.1133 37.105 11.5603 37.105 11.0074 37.1067C10.6584 37.1067 10.3095 37.1067 9.96052 37.105C9.79532 37.1067 9.62842 37.1067 9.45816 37.1067C9.22889 37.105 9.22889 37.105 8.99625 37.105C8.86139 37.105 8.72653 37.105 8.58661 37.105C8.27811 37.0827 8.27811 37.0827 8.10953 36.9113C8.09098 36.4589 8.08087 36.0099 8.08087 35.5575C8.08087 35.4221 8.07918 35.285 8.07918 35.1462C8.07918 34.8583 8.0775 34.5687 8.0775 34.2808C8.0775 33.8404 8.07413 33.3983 8.07075 32.9561C8.07075 32.6768 8.07075 32.3992 8.07075 32.1199C8.06907 31.9862 8.06738 31.8543 8.06738 31.7172C8.07075 30.7644 8.15167 30.3599 9.13617 30.3496Z" fill="white"/>
<path d="M10.0123 18.3353C10.1505 18.3353 10.2888 18.3336 10.4304 18.3336C10.722 18.3336 11.0136 18.3336 11.307 18.337C11.7503 18.3388 12.192 18.337 12.6354 18.3336C12.9203 18.3336 13.2052 18.3336 13.4884 18.3353C13.6856 18.3336 13.6856 18.3336 13.8845 18.3319C15.0359 18.3473 16.1637 18.589 17.1078 19.2933C17.7703 20.0147 18.0451 20.6299 18.0653 21.6222C18.013 22.4721 17.9625 23.2364 17.3809 23.8876C16.5548 24.484 15.7929 24.765 14.7881 24.7668C14.6431 24.7668 14.4982 24.7668 14.3498 24.7685C14.1947 24.7685 14.0396 24.7668 13.8812 24.7668C13.721 24.7668 13.5626 24.7668 13.3974 24.7668C13.0619 24.7668 12.7247 24.7668 12.3876 24.7668C11.87 24.765 11.3542 24.7668 10.8366 24.7685C10.5096 24.7668 10.1825 24.7668 9.85551 24.7668C9.62287 24.7668 9.62287 24.7668 9.38517 24.7685C8.29784 24.7633 8.29784 24.7633 8.10903 24.5731C8.0888 24.1601 8.077 23.7505 8.07531 23.3376C8.07363 23.2125 8.07363 23.0891 8.07194 22.9605C8.07026 22.6984 8.06857 22.4344 8.06857 22.1723C8.06688 21.7695 8.06183 21.3668 8.05677 20.9641C8.05508 20.7088 8.05508 20.4534 8.0534 20.1998C8.05171 20.0781 8.05003 19.9582 8.04834 19.8331C8.05003 19.3704 8.06688 19.0002 8.27761 18.5855C8.82886 18.2891 9.40371 18.3302 10.0123 18.3353Z" fill="white"/>
</svg>
